<?xml version="1.0" standalone="no"?>
<!DOCTYPE svg PUBLIC "-//W3C//DTD SVG 1.1//EN" "http://www.w3.org/Graphics/SVG/1.1/DTD/svg11.dtd" >
<svg xmlns="http://www.w3.org/2000/svg" xmlns:xlink="http://www.w3.org/1999/xlink" version="1.1">
<metadata></metadata>
<defs>
<font id="float_the_boatregular" horiz-adv-x="1300" >
<font-face units-per-em="2048" ascent="1638" descent="-410" />
<missing-glyph horiz-adv-x="508" />
<glyph unicode="&#xd;" horiz-adv-x="508" />
<glyph horiz-adv-x="0" />
<glyph horiz-adv-x="0" />
<glyph unicode=" "  horiz-adv-x="508" />
<glyph unicode="&#x09;" horiz-adv-x="508" />
<glyph unicode="&#xa0;" horiz-adv-x="508" />
<glyph unicode="!" horiz-adv-x="200" d="M0 0v100h100v-100h-100zM0 300v1200h100v-1200h-100z" />
<glyph unicode="&#x22;" horiz-adv-x="400" d="M0 1200v300h100v-300h-100zM200 1200v300h100v-300h-100z" />
<glyph unicode="#" horiz-adv-x="1400" d="M0 300v100h300v700h-300v100h300v300h100v-300h500v300h100v-300h300v-100h-300v-700h300v-100h-300v-300h-100v300h-500v-300h-100v300h-300zM400 400h500v700h-500v-700z" />
<glyph unicode="$" d="M0 0v100h550v600h-150q-166 0 -283 117t-117 283t117 283t283 117h150v200h100v-200h550v-100h-550v-600h150q166 0 283 -117t117 -283t-117 -283t-283 -117h-150v-200h-100v200h-550zM100 1100q0 -124 88 -212t212 -88h150v600h-150q-124 0 -212 -88t-88 -212zM650 100 h150q124 0 212 88t88 212t-88 212t-212 88h-150v-600z" />
<glyph unicode="%" horiz-adv-x="800" d="M-61 0l711 1500h111l-711 -1500h-111zM0 1300q0 83 58.5 141.5t141.5 58.5t141.5 -58.5t58.5 -141.5t-58.5 -141.5t-141.5 -58.5t-141.5 58.5t-58.5 141.5zM100 1300q0 -41 29.5 -70.5t70.5 -29.5t70.5 29.5t29.5 70.5t-29.5 70.5t-70.5 29.5t-70.5 -29.5t-29.5 -70.5z M300 200q0 83 58.5 141.5t141.5 58.5t141.5 -58.5t58.5 -141.5t-58.5 -141.5t-141.5 -58.5t-141.5 58.5t-58.5 141.5zM400 200q0 -41 29.5 -70.5t70.5 -29.5t70.5 29.5t29.5 70.5t-29.5 70.5t-70.5 29.5t-70.5 -29.5t-29.5 -70.5z" />
<glyph unicode="&#x26;" d="M0 400q0 166 117 283q41 41 87 67q-46 26 -87 67q-117 117 -117 283t117 283t283 117h600v-100h-600q-124 0 -212 -88t-88 -212t88 -212t212 -88h500v200h100v-200h200v-100h-200v-600h200v-100h-800q-166 0 -283 117t-117 283zM100 400q0 -124 88 -212t212 -88h500v600 h-500q-124 0 -212 -88t-88 -212z" />
<glyph unicode="'" horiz-adv-x="200" d="M0 1200v300h100v-300h-100z" />
<glyph unicode="(" horiz-adv-x="600" d="M0 300v900q0 166 117 283t283 117h100v-100h-100q-124 0 -212 -88t-88 -212v-900q0 -124 88 -212t212 -88h100v-100h-100q-166 0 -283 117t-117 283z" />
<glyph unicode=")" horiz-adv-x="600" d="M0 0h100q124 0 212 88t88 212v900q0 124 -88 212t-212 88h-100v100h100q166 0 283 -117t117 -283v-900q0 -166 -117 -283t-283 -117h-100v100z" />
<glyph unicode="*" horiz-adv-x="900" d="M-15 868l315 182l-315 182l50 86l315 -182v364h100v-364l315 182l50 -86l-315 -182l315 -182l-50 -86l-315 182v-364h-100v364l-315 -182z" />
<glyph unicode="+" horiz-adv-x="1000" d="M0 700v100h400v400h100v-400h400v-100h-400v-400h-100v400h-400z" />
<glyph unicode="," horiz-adv-x="200" d="M0 100h100v-300h-100v300z" />
<glyph unicode="-" horiz-adv-x="1000" d="M0 700v100h900v-100h-900z" />
<glyph unicode="." horiz-adv-x="200" d="M0 0v100h100v-100h-100z" />
<glyph unicode="/" horiz-adv-x="800" d="M-61 0l711 1500h111l-711 -1500h-111z" />
<glyph unicode="0" horiz-adv-x="1600" d="M0 750q0 311 219.5 530.5t530.5 219.5t530.5 -219.5t219.5 -530.5t-219.5 -530.5t-530.5 -219.5t-530.5 219.5t-219.5 530.5zM100 750q0 -269 190.5 -459.5t459.5 -190.5t459.5 190.5t190.5 459.5t-190.5 459.5t-459.5 190.5t-459.5 -190.5t-190.5 -459.5z" />
<glyph unicode="1" horiz-adv-x="200" d="M0 0v1500h100v-1500h-100z" />
<glyph unicode="2" d="M0 400q0 166 117 283t283 117h400q124 0 212 88t88 212t-88 212t-212 88h-800v100h800q166 0 283 -117t117 -283t-117 -283t-283 -117h-400q-124 0 -212 -88t-88 -212t88 -212t212 -88h800v-100h-800q-166 0 -283 117t-117 283z" />
<glyph unicode="3" d="M0 0v100h800q124 0 212 88t88 212t-88 212t-212 88h-800v100h800q124 0 212 88t88 212t-88 212t-212 88h-800v100h800q166 0 283 -117t117 -283t-117 -283q-41 -41 -87 -67q46 -26 87 -67q117 -117 117 -283t-117 -283t-283 -117h-800z" />
<glyph unicode="4" horiz-adv-x="1400" d="M0 400v100h100v1000h100v-1000h900v1000h100v-1000h100v-100h-100v-400h-100v400h-1100z" />
<glyph unicode="5" d="M0 0v100h800q124 0 212 88t88 212t-88 212t-212 88h-400q-166 0 -283 117t-117 283t117 283t283 117h800v-100h-800q-124 0 -212 -88t-88 -212t88 -212t212 -88h400q166 0 283 -117t117 -283t-117 -283t-283 -117h-800z" />
<glyph unicode="6" d="M0 400v700q0 166 117 283t283 117h800v-100h-800q-124 0 -212 -88t-88 -212v-300h700q166 0 283 -117t117 -283t-117 -283t-283 -117h-400q-166 0 -283 117t-117 283zM100 400q0 -124 88 -212t212 -88h400q124 0 212 88t88 212t-88 212t-212 88h-700v-300z" />
<glyph unicode="7" d="M0 700v100h811l285 600h-1096v100h1253l-332 -700h279v-100h-326l-332 -700h-110l332 700h-764z" />
<glyph unicode="8" d="M0 400q0 166 117 283q41 41 87 67q-46 26 -87 67q-117 117 -117 283t117 283t283 117h400q166 0 283 -117t117 -283t-117 -283q-41 -41 -87 -67q46 -26 87 -67q117 -117 117 -283t-117 -283t-283 -117h-400q-166 0 -283 117t-117 283zM100 400q0 -124 88 -212t212 -88 h400q124 0 212 88t88 212t-88 212t-212 88h-400q-124 0 -212 -88t-88 -212zM100 1100q0 -124 88 -212t212 -88h400q124 0 212 88t88 212t-88 212t-212 88h-400q-124 0 -212 -88t-88 -212z" />
<glyph unicode="9" d="M0 0v100h800q124 0 212 88t88 212v300h-700q-166 0 -283 117t-117 283t117 283t283 117h400q166 0 283 -117t117 -283v-700q0 -166 -117 -283t-283 -117h-800zM100 1100q0 -124 88 -212t212 -88h700v300q0 124 -88 212t-212 88h-400q-124 0 -212 -88t-88 -212z" />
<glyph unicode=":" horiz-adv-x="200" d="M0 0v100h100v-100h-100zM0 924v100h100v-100h-100z" />
<glyph unicode=";" horiz-adv-x="200" d="M0 100h100v-300h-100v300zM0 924v100h100v-100h-100z" />
<glyph unicode="&#x3c;" horiz-adv-x="600" d="M0 300v900q0 166 117 283t283 117h100v-100h-100q-124 0 -212 -88t-88 -212v-900q0 -124 88 -212t212 -88h100v-100h-100q-166 0 -283 117t-117 283z" />
<glyph unicode="=" horiz-adv-x="1000" d="M0 500v100h900v-100h-900zM0 900v100h900v-100h-900z" />
<glyph unicode="&#x3e;" horiz-adv-x="600" d="M0 0h100q124 0 212 88t88 212v900q0 124 -88 212t-212 88h-100v100h100q166 0 283 -117t117 -283v-900q0 -166 -117 -283t-283 -117h-100v100z" />
<glyph unicode="?" d="M0 1400v100h800q166 0 283 -117t117 -283t-117 -283t-283 -117h-400v-400h-100v500h500q124 0 212 88t88 212t-88 212t-212 88h-800zM300 0v100h100v-100h-100z" />
<glyph unicode="@" horiz-adv-x="1600" d="M0 750q0 311 220 531q79 79 170 129l-43 90h110l23 -48q125 48 270 48q311 0 530.5 -219.5t219.5 -530.5t-219 -530q-74 -74 -159 -123l46 -97h-110l-25 53q-131 -53 -283 -53q-311 0 -530.5 219.5t-219.5 530.5zM100 750q0 -269 190.5 -459.5t459.5 -190.5q129 0 240 44 l-86 182q-72 -26 -154 -26q-186 0 -318 132t-132 318t132 318q41 41 87 69l-86 182q-76 -43 -142 -109q-191 -191 -191 -460zM400 750q0 -145 102.5 -247.5t247.5 -102.5q59 0 110 17l-298 629q-31 -20 -59 -48q-103 -103 -103 -248zM523 1361l86 -182q66 21 141 21 q186 0 318 -132t132 -318t-132 -318q-36 -36 -75 -62l86 -182q69 41 131 103q190 190 190 459t-190.5 459.5t-459.5 190.5q-122 0 -227 -39zM653 1087l296 -625q25 17 49 41q102 102 102 247t-102.5 247.5t-247.5 102.5q-51 0 -97 -13z" />
<glyph unicode="A" d="M-161 0l711 1500h99l711 -1500h-1521zM-4 100h1207l-603 1272z" />
<glyph unicode="B" d="M0 0v100h800q124 0 212 88t88 212t-88 212t-212 88h-800v100h800q124 0 212 88t88 212t-88 212t-212 88h-800v100h800q166 0 283 -117t117 -283t-117 -283q-41 -41 -87 -67q46 -26 87 -67q117 -117 117 -283t-117 -283t-283 -117h-800z" />
<glyph unicode="C" d="M0 750q0 311 219.5 530.5t530.5 219.5h450v-100h-450q-269 0 -459.5 -190.5t-190.5 -459.5t190.5 -459.5t459.5 -190.5h450v-100h-450q-311 0 -530.5 219.5t-219.5 530.5z" />
<glyph unicode="D" d="M0 0v100h450q269 0 459.5 190.5t190.5 459.5t-190.5 459.5t-459.5 190.5h-450v100h450q311 0 530.5 -219.5t219.5 -530.5t-219.5 -530.5t-530.5 -219.5h-450z" />
<glyph unicode="E" d="M0 0v100h1200v-100h-1200zM0 700v100h1200v-100h-1200zM0 1400v100h1200v-100h-1200z" />
<glyph unicode="F" d="M-53 1500h1253v-100h-1096l285 -600h811v-100h-764l332 -700h-110l-332 700h-326v100h279z" />
<glyph unicode="G" d="M0 750q0 311 219.5 530.5t530.5 219.5h450v-100h-450q-269 0 -459 -190q-173 -173 -189 -410h1098v-100h-364l285 -600h79v-100h-450q-311 0 -530.5 219.5t-219.5 530.5zM102 700q16 -237 189 -409q190 -191 459 -191h261l-285 600h-624z" />
<glyph unicode="H" horiz-adv-x="1400" d="M0 700v100h100v700h100v-700h900v700h100v-700h100v-100h-100v-700h-100v700h-900v-700h-100v700h-100z" />
<glyph unicode="I" horiz-adv-x="200" d="M0 0v1500h100v-1500h-100z" />
<glyph unicode="J" d="M0 0v600h100v-500h350q269 0 459.5 190.5t190.5 459.5v650h-500v100h600v-750q0 -311 -219.5 -530.5t-530.5 -219.5h-450z" />
<glyph unicode="K" d="M0 0v1500h100v-700h579l-332 700h110l332 -700h11q124 0 212 88t88 212v400h100v-400q0 -166 -117 -283q-104 -104 -247 -116l332 -701h-110l-332 700h-626v-700h-100z" />
<glyph unicode="L" d="M-53 0l711 1500h110l-664 -1400h1096v-100h-1253z" />
<glyph unicode="M" horiz-adv-x="1600" d="M0 0v1100q0 166 117 283t283 117t283 -117q41 -41 67 -87q26 46 67 87q117 117 283 117t283 -117t117 -283v-1100h-100v1100q0 124 -88 212t-212 88t-212 -88t-88 -212v-1100h-100v1100q0 124 -88 212t-212 88t-212 -88t-88 -212v-1100h-100z" />
<glyph unicode="N" horiz-adv-x="1400" d="M0 0v1500h100v-700h429l-332 700h110l332 -700h461v700h100v-1500h-100v700h-414l332 -700h-110l-332 700h-476v-700h-100z" />
<glyph unicode="O" horiz-adv-x="1600" d="M0 750q0 311 219.5 530.5t530.5 219.5t530.5 -219.5t219.5 -530.5t-219.5 -530.5t-530.5 -219.5t-530.5 219.5t-219.5 530.5zM100 750q0 -269 190.5 -459.5t459.5 -190.5t459.5 190.5t190.5 459.5t-190.5 459.5t-459.5 190.5t-459.5 -190.5t-190.5 -459.5z" />
<glyph unicode="P" d="M-53 1500h853q166 0 283 -117t117 -283t-117 -283t-283 -117h-364l332 -700h-110l-332 700h-326v100h279zM104 1400l285 -600h411q124 0 212 88t88 212t-88 212t-212 88h-696z" />
<glyph unicode="Q" horiz-adv-x="1600" d="M0 750q0 311 220 531q79 79 170 129l-43 90h110l23 -48q125 48 270 48q311 0 530.5 -219.5t219.5 -530.5t-219 -530q-74 -74 -159 -123l46 -97h-110l-25 53q-131 -53 -283 -53q-311 0 -530.5 219.5t-219.5 530.5zM100 750q0 -269 190.5 -459.5t459.5 -190.5q129 0 240 44 l-557 1175q-76 -43 -142 -109q-191 -191 -191 -460zM523 1361l556 -1173q69 41 131 103q190 190 190 459t-190.5 459.5t-459.5 190.5q-122 0 -227 -39z" />
<glyph unicode="R" d="M0 0v800h679l-285 600h-394v100h800q166 0 283 -117t117 -283t-117 -283q-104 -104 -247 -116l332 -701h-110l-332 700h-626v-700h-100zM504 1400l285 -600h11q124 0 212 88t88 212t-88 212t-212 88h-296z" />
<glyph unicode="S" d="M0 0v100h244l285 600h-129q-166 0 -283 117t-117 283t117 283t283 117h800v-100h-229l-285 -600h114q166 0 283 -117t117 -283t-117 -283t-283 -117h-800zM100 1100q0 -124 88 -212t212 -88h176l285 600h-461q-124 0 -212 -88t-88 -212zM354 100h446q124 0 212 88t88 212 t-88 212t-212 88h-161z" />
<glyph unicode="T" horiz-adv-x="1400" d="M0 700v100h600v600h-600v100h1300v-100h-600v-600h600v-100h-600v-700h-100v700h-600z" />
<glyph unicode="U" d="M0 750v750h600v-100h-500v-650q0 -269 190.5 -459.5t459.5 -190.5h350v1400h100v-1500h-450q-311 0 -530.5 219.5t-219.5 530.5z" />
<glyph unicode="V" d="M-161 1500h110l651 -1372l650 1372h110l-711 -1500h-99z" />
<glyph unicode="W" horiz-adv-x="1600" d="M0 400v1100h100v-1100q0 -124 88 -212t212 -88t212 88t88 212v1100h100v-1100q0 -124 88 -212t212 -88t212 88t88 212v1100h100v-1100q0 -166 -117 -283t-283 -117t-283 117q-41 41 -67 87q-26 -46 -67 -87q-117 -117 -283 -117t-283 117t-117 283z" />
<glyph unicode="X" d="M0 0v400q0 166 117 283q104 104 247 116l-332 701h110l332 -700h626v700h100v-800h-679l332 -700h-110l-332 700h-11q-124 0 -212 -88t-88 -212v-400h-100z" />
<glyph unicode="Y" d="M0 0v100h800q124 0 212 88t88 212v300h-1100v800h100v-700h626l332 700h110l-332 -700h364v-400q0 -166 -117 -283t-283 -117h-800z" />
<glyph unicode="Z" d="M0 0v100h229l285 600h-514v100h561l285 600h-846v100h1200v-100h-244l-285 -600h529v-100h-576l-285 -600h861v-100h-1200z" />
<glyph unicode="[" horiz-adv-x="600" d="M0 -100v1700h500v-100h-400v-1500h400v-100h-500z" />
<glyph unicode="\" horiz-adv-x="800" d="M-61 1500h111l711 -1500h-111z" />
<glyph unicode="]" horiz-adv-x="600" d="M0 0h400v1500h-400v100h500v-1700h-500v100z" />
<glyph unicode="^" horiz-adv-x="200" d="M0 1200v300h100v-300h-100z" />
<glyph unicode="_" d="M0 0v100h1200v-100h-1200z" />
<glyph unicode="`" horiz-adv-x="200" d="M0 1200v300h100v-300h-100z" />
<glyph unicode="a" d="M-161 0l711 1500h99l711 -1500h-1521zM-4 100h1207l-603 1272z" />
<glyph unicode="b" d="M0 0v100h800q124 0 212 88t88 212t-88 212t-212 88h-800v100h800q124 0 212 88t88 212t-88 212t-212 88h-800v100h800q166 0 283 -117t117 -283t-117 -283q-41 -41 -87 -67q46 -26 87 -67q117 -117 117 -283t-117 -283t-283 -117h-800z" />
<glyph unicode="c" d="M0 750q0 311 219.5 530.5t530.5 219.5h450v-100h-450q-269 0 -459.5 -190.5t-190.5 -459.5t190.5 -459.5t459.5 -190.5h450v-100h-450q-311 0 -530.5 219.5t-219.5 530.5z" />
<glyph unicode="d" d="M0 0v100h450q269 0 459.5 190.5t190.5 459.5t-190.5 459.5t-459.5 190.5h-450v100h450q311 0 530.5 -219.5t219.5 -530.5t-219.5 -530.5t-530.5 -219.5h-450z" />
<glyph unicode="e" d="M0 0v100h1200v-100h-1200zM0 700v100h1200v-100h-1200zM0 1400v100h1200v-100h-1200z" />
<glyph unicode="f" d="M-53 1500h1253v-100h-1096l285 -600h811v-100h-764l332 -700h-110l-332 700h-326v100h279z" />
<glyph unicode="g" d="M0 750q0 311 219.5 530.5t530.5 219.5h450v-100h-450q-269 0 -459 -190q-173 -173 -189 -410h1098v-100h-364l285 -600h79v-100h-450q-311 0 -530.5 219.5t-219.5 530.5zM102 700q16 -237 189 -409q190 -191 459 -191h261l-285 600h-624z" />
<glyph unicode="h" horiz-adv-x="1400" d="M0 700v100h100v700h100v-700h900v700h100v-700h100v-100h-100v-700h-100v700h-900v-700h-100v700h-100z" />
<glyph unicode="i" horiz-adv-x="200" d="M0 0v1500h100v-1500h-100z" />
<glyph unicode="j" d="M0 0v600h100v-500h350q269 0 459.5 190.5t190.5 459.5v650h-500v100h600v-750q0 -311 -219.5 -530.5t-530.5 -219.5h-450z" />
<glyph unicode="k" d="M0 0v1500h100v-700h579l-332 700h110l332 -700h11q124 0 212 88t88 212v400h100v-400q0 -166 -117 -283q-104 -104 -247 -116l332 -701h-110l-332 700h-626v-700h-100z" />
<glyph unicode="l" d="M-53 0l711 1500h110l-664 -1400h1096v-100h-1253z" />
<glyph unicode="m" horiz-adv-x="1600" d="M0 0v1100q0 166 117 283t283 117t283 -117q41 -41 67 -87q26 46 67 87q117 117 283 117t283 -117t117 -283v-1100h-100v1100q0 124 -88 212t-212 88t-212 -88t-88 -212v-1100h-100v1100q0 124 -88 212t-212 88t-212 -88t-88 -212v-1100h-100z" />
<glyph unicode="n" horiz-adv-x="1400" d="M0 0v1500h100v-700h429l-332 700h110l332 -700h461v700h100v-1500h-100v700h-414l332 -700h-110l-332 700h-476v-700h-100z" />
<glyph unicode="o" horiz-adv-x="1600" d="M0 750q0 311 219.5 530.5t530.5 219.5t530.5 -219.5t219.5 -530.5t-219.5 -530.5t-530.5 -219.5t-530.5 219.5t-219.5 530.5zM100 750q0 -269 190.5 -459.5t459.5 -190.5t459.5 190.5t190.5 459.5t-190.5 459.5t-459.5 190.5t-459.5 -190.5t-190.5 -459.5z" />
<glyph unicode="p" d="M-53 1500h853q166 0 283 -117t117 -283t-117 -283t-283 -117h-364l332 -700h-110l-332 700h-326v100h279zM104 1400l285 -600h411q124 0 212 88t88 212t-88 212t-212 88h-696z" />
<glyph unicode="q" horiz-adv-x="1600" d="M0 750q0 311 220 531q79 79 170 129l-43 90h110l23 -48q125 48 270 48q311 0 530.5 -219.5t219.5 -530.5t-219 -530q-74 -74 -159 -123l46 -97h-110l-25 53q-131 -53 -283 -53q-311 0 -530.5 219.5t-219.5 530.5zM100 750q0 -269 190.5 -459.5t459.5 -190.5q129 0 240 44 l-557 1175q-76 -43 -142 -109q-191 -191 -191 -460zM523 1361l556 -1173q69 41 131 103q190 190 190 459t-190.5 459.5t-459.5 190.5q-122 0 -227 -39z" />
<glyph unicode="r" d="M0 0v800h679l-285 600h-394v100h800q166 0 283 -117t117 -283t-117 -283q-104 -104 -247 -116l332 -701h-110l-332 700h-626v-700h-100zM504 1400l285 -600h11q124 0 212 88t88 212t-88 212t-212 88h-296z" />
<glyph unicode="s" d="M0 0v100h244l285 600h-129q-166 0 -283 117t-117 283t117 283t283 117h800v-100h-229l-285 -600h114q166 0 283 -117t117 -283t-117 -283t-283 -117h-800zM100 1100q0 -124 88 -212t212 -88h176l285 600h-461q-124 0 -212 -88t-88 -212zM354 100h446q124 0 212 88t88 212 t-88 212t-212 88h-161z" />
<glyph unicode="t" horiz-adv-x="1400" d="M0 700v100h600v600h-600v100h1300v-100h-600v-600h600v-100h-600v-700h-100v700h-600z" />
<glyph unicode="u" d="M0 750v750h600v-100h-500v-650q0 -269 190.5 -459.5t459.5 -190.5h350v1400h100v-1500h-450q-311 0 -530.5 219.5t-219.5 530.5z" />
<glyph unicode="v" d="M-161 1500h110l651 -1372l650 1372h110l-711 -1500h-99z" />
<glyph unicode="w" horiz-adv-x="1600" d="M0 400v1100h100v-1100q0 -124 88 -212t212 -88t212 88t88 212v1100h100v-1100q0 -124 88 -212t212 -88t212 88t88 212v1100h100v-1100q0 -166 -117 -283t-283 -117t-283 117q-41 41 -67 87q-26 -46 -67 -87q-117 -117 -283 -117t-283 117t-117 283z" />
<glyph unicode="x" d="M0 0v400q0 166 117 283q104 104 247 116l-332 701h110l332 -700h626v700h100v-800h-679l332 -700h-110l-332 700h-11q-124 0 -212 -88t-88 -212v-400h-100z" />
<glyph unicode="y" d="M0 0v100h800q124 0 212 88t88 212v300h-1100v800h100v-700h626l332 700h110l-332 -700h364v-400q0 -166 -117 -283t-283 -117h-800z" />
<glyph unicode="z" d="M0 0v100h229l285 600h-514v100h561l285 600h-846v100h1200v-100h-244l-285 -600h529v-100h-576l-285 -600h861v-100h-1200z" />
<glyph unicode="{" horiz-adv-x="800" d="M0 700v100q124 0 212 88t88 212v100q0 166 117 283t283 117v-100q-124 0 -212 -88t-88 -212v-100q0 -166 -117 -283q-41 -41 -87 -67q46 -26 87 -67q117 -117 117 -283v-100q0 -124 88 -212t212 -88v-100q-166 0 -283 117t-117 283v100q0 124 -88 212t-212 88z" />
<glyph unicode="|" horiz-adv-x="200" d="M0 0v1500h100v-1500h-100z" />
<glyph unicode="}" horiz-adv-x="800" d="M0 0q124 0 212 88t88 212v100q0 166 117 283q41 41 87 67q-46 26 -87 67q-117 117 -117 283v100q0 124 -88 212t-212 88v100q166 0 283 -117t117 -283v-100q0 -124 88 -212t212 -88v-100q-124 0 -212 -88t-88 -212v-100q0 -166 -117 -283t-283 -117v100z" />
<glyph unicode="~" horiz-adv-x="1000" d="M0 700v100h900v-100h-900z" />
<glyph unicode="&#xad;" horiz-adv-x="1000" d="M0 700v100h900v-100h-900z" />
<glyph unicode="&#x2000;" horiz-adv-x="850" />
<glyph unicode="&#x2001;" horiz-adv-x="1700" />
<glyph unicode="&#x2002;" horiz-adv-x="850" />
<glyph unicode="&#x2003;" horiz-adv-x="1700" />
<glyph unicode="&#x2004;" horiz-adv-x="566" />
<glyph unicode="&#x2005;" horiz-adv-x="425" />
<glyph unicode="&#x2006;" horiz-adv-x="283" />
<glyph unicode="&#x2007;" horiz-adv-x="283" />
<glyph unicode="&#x2008;" horiz-adv-x="212" />
<glyph unicode="&#x2009;" horiz-adv-x="340" />
<glyph unicode="&#x200a;" horiz-adv-x="94" />
<glyph unicode="&#x2010;" horiz-adv-x="1000" d="M0 700v100h900v-100h-900z" />
<glyph unicode="&#x2011;" horiz-adv-x="1000" d="M0 700v100h900v-100h-900z" />
<glyph unicode="&#x2012;" horiz-adv-x="1000" d="M0 700v100h900v-100h-900z" />
<glyph unicode="&#x2013;" horiz-adv-x="1124" d="M0 700v100h1024v-100h-1024z" />
<glyph unicode="&#x2014;" horiz-adv-x="2148" d="M0 700v100h2048v-100h-2048z" />
<glyph unicode="&#x202f;" horiz-adv-x="340" />
<glyph unicode="&#x205f;" horiz-adv-x="425" />
<glyph unicode="&#x25fc;" horiz-adv-x="1500" d="M0 0v1500h1500v-1500h-1500z" />
</font>
</defs>
</svg>
